<mxfile host="app.diagrams.net" modified="2024-02-06T06:07:46.641Z" agent="Mozilla/5.0 (Windows NT 10.0; Win64; x64) AppleWebKit/537.36 (KHTML, like Gecko) Chrome/121.0.0.0 Safari/537.36" etag="ThQVXI4fqptpYVCOLDvA" version="23.1.1" type="github">
  <diagram name="Page-1" id="NGeVeZENVF_6QmEfX9vV">
    <mxGraphModel dx="880" dy="460" grid="1" gridSize="10" guides="1" tooltips="1" connect="1" arrows="1" fold="1" page="1" pageScale="1" pageWidth="850" pageHeight="1100" math="0" shadow="0">
      <root>
        <mxCell id="0" />
        <mxCell id="1" parent="0" />
        <mxCell id="wGJYUjoPk-s7y8s0GdfZ-2" value="" style="rounded=0;whiteSpace=wrap;html=1;" vertex="1" parent="1">
          <mxGeometry x="280" y="400" width="280" height="440" as="geometry" />
        </mxCell>
        <mxCell id="wGJYUjoPk-s7y8s0GdfZ-4" value="Perpus Digital" style="text;html=1;strokeColor=none;fillColor=none;align=center;verticalAlign=middle;whiteSpace=wrap;rounded=0;" vertex="1" parent="1">
          <mxGeometry x="360" y="410" width="105" height="30" as="geometry" />
        </mxCell>
        <mxCell id="wGJYUjoPk-s7y8s0GdfZ-6" value="From pengunjung" style="ellipse;whiteSpace=wrap;html=1;" vertex="1" parent="1">
          <mxGeometry x="355" y="470" width="130" height="60" as="geometry" />
        </mxCell>
        <mxCell id="wGJYUjoPk-s7y8s0GdfZ-7" value="Pencarian buku" style="ellipse;whiteSpace=wrap;html=1;" vertex="1" parent="1">
          <mxGeometry x="360" y="560" width="130" height="60" as="geometry" />
        </mxCell>
        <mxCell id="wGJYUjoPk-s7y8s0GdfZ-9" value="Detail buku" style="ellipse;whiteSpace=wrap;html=1;" vertex="1" parent="1">
          <mxGeometry x="360" y="650" width="130" height="60" as="geometry" />
        </mxCell>
        <mxCell id="wGJYUjoPk-s7y8s0GdfZ-10" value="Laporan statistik" style="ellipse;whiteSpace=wrap;html=1;" vertex="1" parent="1">
          <mxGeometry x="360" y="740" width="130" height="60" as="geometry" />
        </mxCell>
        <mxCell id="wGJYUjoPk-s7y8s0GdfZ-12" value="Pengunjung" style="shape=umlActor;verticalLabelPosition=bottom;verticalAlign=top;html=1;outlineConnect=0;" vertex="1" parent="1">
          <mxGeometry x="120" y="550" width="60" height="140" as="geometry" />
        </mxCell>
        <mxCell id="wGJYUjoPk-s7y8s0GdfZ-13" value="Pustakawan" style="shape=umlActor;verticalLabelPosition=bottom;verticalAlign=top;html=1;outlineConnect=0;" vertex="1" parent="1">
          <mxGeometry x="670" y="550" width="60" height="140" as="geometry" />
        </mxCell>
        <mxCell id="wGJYUjoPk-s7y8s0GdfZ-17" value="" style="endArrow=none;html=1;rounded=0;entryX=0;entryY=0.5;entryDx=0;entryDy=0;" edge="1" parent="1" target="wGJYUjoPk-s7y8s0GdfZ-6">
          <mxGeometry width="50" height="50" relative="1" as="geometry">
            <mxPoint x="180" y="570" as="sourcePoint" />
            <mxPoint x="260" y="550" as="targetPoint" />
            <Array as="points">
              <mxPoint x="250" y="510" />
            </Array>
          </mxGeometry>
        </mxCell>
        <mxCell id="wGJYUjoPk-s7y8s0GdfZ-18" value="" style="endArrow=none;html=1;rounded=0;entryX=0;entryY=0.5;entryDx=0;entryDy=0;" edge="1" parent="1" source="wGJYUjoPk-s7y8s0GdfZ-12" target="wGJYUjoPk-s7y8s0GdfZ-7">
          <mxGeometry width="50" height="50" relative="1" as="geometry">
            <mxPoint x="230" y="625" as="sourcePoint" />
            <mxPoint x="340" y="590" as="targetPoint" />
          </mxGeometry>
        </mxCell>
        <mxCell id="wGJYUjoPk-s7y8s0GdfZ-19" value="" style="endArrow=none;html=1;rounded=0;entryX=0;entryY=0.5;entryDx=0;entryDy=0;" edge="1" parent="1" source="wGJYUjoPk-s7y8s0GdfZ-12" target="wGJYUjoPk-s7y8s0GdfZ-9">
          <mxGeometry width="50" height="50" relative="1" as="geometry">
            <mxPoint x="220" y="680" as="sourcePoint" />
            <mxPoint x="270" y="630" as="targetPoint" />
          </mxGeometry>
        </mxCell>
        <mxCell id="wGJYUjoPk-s7y8s0GdfZ-21" value="" style="endArrow=none;html=1;rounded=0;exitX=1;exitY=0.5;exitDx=0;exitDy=0;" edge="1" parent="1" source="wGJYUjoPk-s7y8s0GdfZ-6" target="wGJYUjoPk-s7y8s0GdfZ-13">
          <mxGeometry width="50" height="50" relative="1" as="geometry">
            <mxPoint x="590" y="610" as="sourcePoint" />
            <mxPoint x="640" y="560" as="targetPoint" />
            <Array as="points">
              <mxPoint x="590" y="500" />
            </Array>
          </mxGeometry>
        </mxCell>
        <mxCell id="wGJYUjoPk-s7y8s0GdfZ-22" value="" style="endArrow=none;html=1;rounded=0;exitX=1;exitY=0.5;exitDx=0;exitDy=0;" edge="1" parent="1" source="wGJYUjoPk-s7y8s0GdfZ-7" target="wGJYUjoPk-s7y8s0GdfZ-13">
          <mxGeometry width="50" height="50" relative="1" as="geometry">
            <mxPoint x="560" y="670" as="sourcePoint" />
            <mxPoint x="610" y="620" as="targetPoint" />
          </mxGeometry>
        </mxCell>
        <mxCell id="wGJYUjoPk-s7y8s0GdfZ-23" value="" style="endArrow=none;html=1;rounded=0;" edge="1" parent="1" source="wGJYUjoPk-s7y8s0GdfZ-9" target="wGJYUjoPk-s7y8s0GdfZ-13">
          <mxGeometry width="50" height="50" relative="1" as="geometry">
            <mxPoint x="491" y="673" as="sourcePoint" />
            <mxPoint x="620" y="630" as="targetPoint" />
          </mxGeometry>
        </mxCell>
        <mxCell id="wGJYUjoPk-s7y8s0GdfZ-24" value="" style="endArrow=none;html=1;rounded=0;" edge="1" parent="1" source="wGJYUjoPk-s7y8s0GdfZ-10" target="wGJYUjoPk-s7y8s0GdfZ-13">
          <mxGeometry width="50" height="50" relative="1" as="geometry">
            <mxPoint x="580" y="790" as="sourcePoint" />
            <mxPoint x="630" y="710" as="targetPoint" />
            <Array as="points">
              <mxPoint x="610" y="770" />
            </Array>
          </mxGeometry>
        </mxCell>
      </root>
    </mxGraphModel>
  </diagram>
</mxfile>
